/* XPM */
static char *rodain_app[] = {
/* columns rows colors chars-per-pixel */
"64 64 2 1 ",
"  c #35B1B3",
". c None",
/* pixels */
"..........................            ..........................",
"......................                    ......................",
"....................                         ...................",
".................                              .................",
"................                                ................",
"..............                                  . ..............",
".............                                      .............",
"...........                 ........                 ...........",
"..........              ................       .      ..........",
".........             ....................     .       .........",
"........            ........................   .        ........",
".......           ............................ .         .......",
".......          ...............................         .......",
"......         ..................................         ......",
".....         ....................................         .....",
".....        ......................................        .....",
"....         ......................................         ....",
"...         ........................................         ...",
"...        ..........................................        ...",
"...        ..........................................        ...",
"..        ............................................        ..",
"..        ............................................        ..",
".        ..............................................        .",
".        ..............................................        .",
".       ................................................       .",
".       ................................................       .",
"        ..................................................      ",
"        .................................................  .....",
"       ..................................................       ",
"       ..................................................       ",
"       ..................................................       ",
"       ..................................................       ",
"       ..................................................       ",
"       ..................................................       ",
"       ..................................................       ",
"       ..................................................       ",
"        ................................................        ",
".       ................................................        ",
"........................................................       .",
".       ................................................       .",
".        ..............................................        .",
".        ..............................................        .",
"..        ............................................        ..",
"..        ............................................        ..",
"...        ..........................................        ...",
"...        ..........................................        ...",
"...         ........................................         ...",
"....         ......................................         ....",
".....        ......................................        .....",
".....         ....................................         .....",
"......         ..................................         ......",
".......          ..............................          .......",
".......           ............................           .......",
"........            ........................            ........",
".........        .    ....................             .........",
"..........       .      ................              ..........",
"...........      .          ........                 ...........",
".............    .                                 .............",
"..............   .                                ..............",
"................ .                              ................",
"..................                             .................",
"...................                         ....................",
"......................                    ......................",
"..........................            .........................."
};
